<svg width="401" height="376" viewBox="0 0 401 376" fill="none" xmlns="http://www.w3.org/2000/svg">
<path d="M393 359.704H383.75V157.264L388.617 159.535C389.693 160.037 390.848 160.285 391.999 160.285C393.499 160.285 394.992 159.864 396.297 159.033C398.603 157.564 400 155.019 400 152.285V120.15C400 117.042 398.2 114.215 395.383 112.9L367.834 100.044V48.0786C367.834 43.6606 364.252 40.0786 359.834 40.0786H312.25C307.832 40.0786 304.25 43.6606 304.25 48.0786V70.3736L155.049 0.750633C152.713 -0.339367 149.995 -0.237367 147.749 1.02463L4.082 81.7186C1.561 83.1356 0 85.8016 0 88.6936V120.829C0 123.67 1.507 126.298 3.959 127.734C6.412 129.169 9.441 129.196 11.918 127.805L16.25 125.372V359.705H8.333C3.915 359.705 0.333 363.287 0.333 367.705C0.333 372.123 3.915 375.705 8.333 375.705H24.25H375.75H393C397.418 375.705 401 372.123 401 367.705C401 363.287 397.418 359.704 393 359.704ZM320.25 77.5586V56.0786H351.833V92.5786L320.236 77.8336C320.239 77.7416 320.25 77.6516 320.25 77.5586ZM16 93.3756L152.004 16.9856L384 125.246V139.725L155.049 32.8856C153.975 32.3836 152.82 32.1346 151.667 32.1346C150.313 32.1346 148.962 32.4786 147.749 33.1596L16 107.16V93.3756ZM32.25 359.704V116.649C32.25 116.562 32.24 116.478 32.237 116.391L152.004 49.1196L367.75 149.797V359.704H32.25Z" fill="#FFA800"/>
<path d="M184 223.766H56.333C51.915 223.766 48.333 227.348 48.333 231.766V335.829C48.333 340.247 51.915 343.829 56.333 343.829H184C188.418 343.829 192 340.247 192 335.829V231.766C192 227.348 188.418 223.766 184 223.766ZM64.333 239.766H112.166V327.829H64.333V239.766ZM176 327.829H128.167V239.766H176V327.829Z" fill="#FFA800"/>
<path d="M344 223.766H216C211.582 223.766 208 227.348 208 231.766V335.829C208 340.247 211.582 343.829 216 343.829H344C348.418 343.829 352 340.247 352 335.829V231.766C352 227.348 348.418 223.766 344 223.766ZM224 239.766H272V327.829H224V239.766ZM336 327.829H288V239.766H336V327.829Z" fill="#FFA800"/>
<path d="M347.383 159.706L219.963 100.246C218.766 99.6867 217.504 99.4497 216.268 99.4997C211.772 99.3477 208 102.988 208 107.496V199.996C208 204.414 211.582 207.996 216 207.996H344C348.418 207.996 352 204.414 352 199.996V166.956C352 163.847 350.2 161.021 347.383 159.706ZM224 119.786L272 142.185V191.995H224V119.786ZM336 191.996H288V149.652L336 172.051V191.996Z" fill="#FFA800"/>
<path d="M191.966 91.6216C191.956 91.5036 191.942 91.3876 191.928 91.2706C191.911 91.1366 191.891 91.0026 191.867 90.8696C191.842 90.7326 191.814 90.5966 191.782 90.4616C191.756 90.3526 191.729 90.2446 191.698 90.1366C191.657 89.9886 191.612 89.8436 191.562 89.6986C191.529 89.6016 191.493 89.5056 191.456 89.4096C191.4 89.2656 191.342 89.1246 191.278 88.9846C191.233 88.8866 191.186 88.7896 191.137 88.6926C191.072 88.5646 191.006 88.4386 190.934 88.3146C190.873 88.2076 190.809 88.1036 190.743 87.9996C190.675 87.8926 190.606 87.7876 190.533 87.6846C190.453 87.5706 190.369 87.4596 190.282 87.3496C190.213 87.2616 190.143 87.1756 190.071 87.0906C189.974 86.9766 189.873 86.8666 189.768 86.7576C189.694 86.6806 189.62 86.6056 189.543 86.5316C189.436 86.4286 189.325 86.3286 189.212 86.2306C189.124 86.1556 189.035 86.0826 188.945 86.0106C188.838 85.9266 188.73 85.8456 188.619 85.7666C188.506 85.6866 188.391 85.6106 188.274 85.5366C188.177 85.4756 188.08 85.4156 187.98 85.3576C187.838 85.2756 187.692 85.1996 187.544 85.1266C187.489 85.0996 187.439 85.0676 187.384 85.0416L159.717 72.1316C156.963 70.8466 153.85 71.2646 151.568 72.9546C151.425 73.0246 151.281 73.0886 151.14 73.1676L52.416 128.619C49.75 130.117 48.276 132.913 48.336 135.771C48.336 135.791 48.333 135.81 48.333 135.83V199.997C48.333 204.415 51.915 207.997 56.333 207.997H184C188.418 207.997 192 204.415 192 199.997V92.2916C192 92.2286 191.992 92.1676 191.991 92.1046C191.987 91.9436 191.98 91.7826 191.966 91.6216ZM64.333 140.276L112.166 113.409V191.996H64.333V140.276ZM128.167 191.996V104.422L156.715 88.3866L176.001 97.3866V191.995H128.167V191.996Z" fill="#FFA800"/>
</svg>
