<svg width="1719" height="314" viewBox="0 0 1719 314" fill="none" xmlns="http://www.w3.org/2000/svg">
<path d="M519.5 178H493C479.833 178 469.667 174.5 462.5 167.5C455.333 160.5 451.75 150.417 451.75 137.25V58C451.75 44.8333 455.333 34.75 462.5 27.75C469.667 20.75 479.833 17.25 493 17.25H519.5C532.5 17.25 542.583 20.8333 549.75 28C556.917 35 560.5 45 560.5 58V65.5C560.5 69.1667 558.75 71 555.25 71H534C530.5 71 528.75 69.1667 528.75 65.5V59.5C528.75 54.1667 527.667 50.4167 525.5 48.25C523.333 45.9167 519.583 44.75 514.25 44.75H498C492.833 44.75 489.083 45.9167 486.75 48.25C484.583 50.4167 483.5 54.1667 483.5 59.5V135.75C483.5 141.083 484.583 144.917 486.75 147.25C489.083 149.417 492.833 150.5 498 150.5H514.25C519.583 150.5 523.333 149.417 525.5 147.25C527.667 144.917 528.75 141.083 528.75 135.75V120C528.75 118.167 527.833 117.25 526 117.25H511C507.5 117.25 505.75 115.5 505.75 112V95C505.75 91.5 507.5 89.75 511 89.75H554.75C558.583 89.75 560.5 91.6667 560.5 95.5V137.25C560.5 150.25 556.917 160.333 549.75 167.5C542.583 174.5 532.5 178 519.5 178ZM614.48 178H593.23C589.73 178 587.98 176.25 587.98 172.75V55.75C587.98 52.25 589.73 50.5 593.23 50.5H614.48C617.98 50.5 619.73 52.25 619.73 55.75V64.25H620.73C622.564 59.75 625.814 56.3333 630.48 54C635.147 51.6667 640.064 50.5 645.23 50.5H654.23C657.564 50.5 659.23 52.25 659.23 55.75V73C659.23 75 658.814 76.4167 657.98 77.25C657.314 77.9167 656.064 78.1667 654.23 78H636.98C625.48 78 619.73 84.5 619.73 97.5V172.75C619.73 176.25 617.98 178 614.48 178ZM769.139 178H713.889C700.722 178 690.555 174.5 683.389 167.5C676.222 160.5 672.639 150.417 672.639 137.25V91.25C672.639 78.0833 676.222 68 683.389 61C690.555 54 700.722 50.5 713.889 50.5H733.639C746.805 50.5 756.972 54 764.139 61C771.305 68 774.889 78.0833 774.889 91.25V123C774.889 126.5 773.139 128.25 769.639 128.25H706.889C704.889 128.25 703.889 129.167 703.889 131V136.5C703.889 141.667 704.972 145.417 707.139 147.75C709.472 149.917 713.305 151 718.639 151H769.139C772.639 151 774.389 152.833 774.389 156.5V173C774.389 174.833 773.972 176.167 773.139 177C772.472 177.667 771.139 178 769.139 178ZM706.889 107H740.889C742.722 107 743.639 106.083 743.639 104.25V92.25C743.639 86.9167 742.555 83.1667 740.389 81C738.222 78.8333 734.472 77.75 729.139 77.75H718.639C713.305 77.75 709.555 78.8333 707.389 81C705.222 83.1667 704.139 86.9167 704.139 92.25V104.25C704.139 106.083 705.055 107 706.889 107ZM843.424 178H837.424C824.257 178 814.09 174.5 806.924 167.5C799.757 160.5 796.174 150.417 796.174 137.25V91.25C796.174 78.0833 799.757 68 806.924 61C814.09 54 824.257 50.5 837.424 50.5H895.174C898.841 50.5 900.674 52.25 900.674 55.75V172.75C900.674 176.25 898.841 178 895.174 178H874.174C870.674 178 868.924 176.25 868.924 172.75V164.5H867.924C866.09 169 862.84 172.417 858.174 174.75C853.507 176.917 848.59 178 843.424 178ZM868.924 131.5V80.75C868.924 78.9167 867.924 78 865.924 78H842.424C837.09 78 833.34 79.1667 831.174 81.5C829.007 83.6667 827.924 87.4167 827.924 92.75V135.75C827.924 141.083 829.007 144.917 831.174 147.25C833.34 149.417 837.09 150.5 842.424 150.5H851.674C863.174 150.5 868.924 144.167 868.924 131.5ZM930.818 78H920.818C918.818 78 917.402 77.6667 916.568 77C915.902 76.3333 915.568 75 915.568 73V55.75C915.568 52.25 917.318 50.5 920.818 50.5H930.818C932.652 50.5 933.568 49.5833 933.568 47.75V24C933.568 20.5 935.402 18.75 939.068 18.75H960.068C963.568 18.75 965.318 20.5 965.318 24V47.75C965.318 49.5833 966.318 50.5 968.318 50.5H987.818C991.318 50.5 993.068 52.25 993.068 55.75V73C993.068 74.8333 992.652 76.1667 991.818 77C991.152 77.6667 989.818 78 987.818 78H968.318C966.318 78 965.318 78.9167 965.318 80.75V136C965.318 141.167 966.485 144.917 968.818 147.25C971.152 149.417 974.985 150.5 980.318 150.5H990.318C993.818 150.5 995.568 152.25 995.568 155.75V173C995.568 174.833 995.152 176.167 994.318 177C993.652 177.667 992.318 178 990.318 178H975.068C961.902 178 951.652 174.5 944.318 167.5C937.152 160.5 933.568 150.5 933.568 137.5V80.75C933.568 78.9167 932.652 78 930.818 78ZM1100.13 178H1078.88C1075.38 178 1073.63 176.25 1073.63 172.75V22.5C1073.63 19 1075.38 17.25 1078.88 17.25H1100.13C1103.63 17.25 1105.38 19 1105.38 22.5V81.25C1105.38 83.0833 1106.38 84 1108.38 84H1150.63C1152.47 84 1153.38 83.0833 1153.38 81.25V22.5C1153.38 19 1155.13 17.25 1158.63 17.25H1179.88C1183.38 17.25 1185.13 19 1185.13 22.5V172.75C1185.13 176.25 1183.38 178 1179.88 178H1158.63C1155.13 178 1153.38 176.25 1153.38 172.75V114.25C1153.38 112.417 1152.47 111.5 1150.63 111.5H1108.38C1106.38 111.5 1105.38 112.417 1105.38 114.25V172.75C1105.38 176.25 1103.63 178 1100.13 178ZM1276.18 178H1253.93C1240.76 178 1230.59 174.5 1223.43 167.5C1216.26 160.5 1212.68 150.417 1212.68 137.25V91.25C1212.68 78.0833 1216.26 68 1223.43 61C1230.59 54 1240.76 50.5 1253.93 50.5H1276.18C1289.18 50.5 1299.26 54.0833 1306.43 61.25C1313.76 68.25 1317.43 78.25 1317.43 91.25V137.25C1317.43 150.25 1313.76 160.333 1306.43 167.5C1299.26 174.5 1289.18 178 1276.18 178ZM1258.68 150.75H1271.43C1276.76 150.75 1280.51 149.667 1282.68 147.5C1285.01 145.333 1286.18 141.583 1286.18 136.25V92.25C1286.18 86.9167 1285.01 83.1667 1282.68 81C1280.51 78.8333 1276.76 77.75 1271.43 77.75H1258.68C1253.34 77.75 1249.59 78.8333 1247.43 81C1245.26 83.1667 1244.18 86.9167 1244.18 92.25V136.25C1244.18 141.583 1245.26 145.333 1247.43 147.5C1249.59 149.667 1253.34 150.75 1258.68 150.75ZM1388.38 178H1380.13C1367.29 178 1357.54 174.5 1350.88 167.5C1344.38 160.5 1341.13 150.417 1341.13 137.25V55.75C1341.13 52.25 1342.88 50.5 1346.38 50.5H1367.63C1371.13 50.5 1372.88 52.25 1372.88 55.75V135.75C1372.88 141.083 1373.96 144.917 1376.13 147.25C1378.46 149.417 1382.21 150.5 1387.38 150.5H1396.63C1408.13 150.5 1413.88 144.167 1413.88 131.5V55.75C1413.88 52.25 1415.63 50.5 1419.13 50.5H1440.13C1443.79 50.5 1445.63 52.25 1445.63 55.75V172.75C1445.63 176.25 1443.79 178 1440.13 178H1419.13C1415.63 178 1413.88 176.25 1413.88 172.75V164.5H1412.88C1411.04 169 1407.79 172.417 1403.13 174.75C1398.46 176.917 1393.54 178 1388.38 178ZM1521.48 178H1473.98C1470.65 178 1468.98 176.25 1468.98 172.75V156.75C1468.98 154.917 1469.32 153.667 1469.98 153C1470.65 152.167 1471.98 151.75 1473.98 151.75H1515.73C1523.9 151.75 1527.98 149.25 1527.98 144.25V143C1527.98 139 1524.57 135.167 1517.73 131.5L1492.98 117.75C1484.48 113.417 1478.23 108.75 1474.23 103.75C1470.23 98.75 1468.23 92.3333 1468.23 84.5C1468.23 72.8333 1471.32 64.25 1477.48 58.75C1483.65 53.25 1493.32 50.5 1506.48 50.5H1548.23C1551.57 50.5 1553.23 52.25 1553.23 55.75V72C1553.23 73.8333 1552.9 75.1667 1552.23 76C1551.57 76.6667 1550.23 77 1548.23 77H1513.48C1505.32 77 1501.23 79.0833 1501.23 83.25V84.5C1501.23 88.1667 1504.82 91.9167 1511.98 95.75L1537.23 110.75C1545.9 115.417 1551.98 120.25 1555.48 125.25C1558.98 130.083 1560.73 136.5 1560.73 144.5C1560.73 166.833 1547.65 178 1521.48 178ZM1676.85 178H1621.6C1608.44 178 1598.27 174.5 1591.1 167.5C1583.94 160.5 1580.35 150.417 1580.35 137.25V91.25C1580.35 78.0833 1583.94 68 1591.1 61C1598.27 54 1608.44 50.5 1621.6 50.5H1641.35C1654.52 50.5 1664.69 54 1671.85 61C1679.02 68 1682.6 78.0833 1682.6 91.25V123C1682.6 126.5 1680.85 128.25 1677.35 128.25H1614.6C1612.6 128.25 1611.6 129.167 1611.6 131V136.5C1611.6 141.667 1612.69 145.417 1614.85 147.75C1617.19 149.917 1621.02 151 1626.35 151H1676.85C1680.35 151 1682.1 152.833 1682.1 156.5V173C1682.1 174.833 1681.69 176.167 1680.85 177C1680.19 177.667 1678.85 178 1676.85 178ZM1614.6 107H1648.6C1650.44 107 1651.35 106.083 1651.35 104.25V92.25C1651.35 86.9167 1650.27 83.1667 1648.1 81C1645.94 78.8333 1642.19 77.75 1636.85 77.75H1626.35C1621.02 77.75 1617.27 78.8333 1615.1 81C1612.94 83.1667 1611.85 86.9167 1611.85 92.25V104.25C1611.85 106.083 1612.77 107 1614.6 107Z" fill="white"/>
<path d="M490.076 313H449.427V249.016H489.637V255.915H457.952V276.525H485.594V283.381H457.952V306.145H490.076V313ZM562.398 313H553.829L521.704 263.518V313H513.179V249.016H521.704L553.96 298.63V249.016H562.398V313ZM637.312 304.606C636.521 305.749 635.262 307.053 633.533 308.518C631.834 309.953 629.461 311.213 626.414 312.297C623.396 313.352 619.485 313.879 614.68 313.879C609.495 313.879 604.881 312.678 600.838 310.275C596.824 307.873 593.675 304.401 591.389 299.86C589.104 295.319 587.962 289.87 587.962 283.513V278.459C587.962 268.908 590.174 261.467 594.597 256.135C599.051 250.803 605.408 248.137 613.67 248.137C618.562 248.137 622.664 248.986 625.974 250.686C629.285 252.355 631.863 254.67 633.709 257.629C635.584 260.588 636.785 263.957 637.312 267.736H628.787C628.406 265.422 627.644 263.312 626.502 261.408C625.388 259.475 623.792 257.937 621.712 256.794C619.632 255.622 616.966 255.036 613.714 255.036C607.796 255.036 603.445 257.131 600.662 261.32C597.908 265.51 596.531 271.193 596.531 278.371V283.513C596.531 290.896 598.201 296.667 601.541 300.827C604.881 304.958 609.275 307.023 614.724 307.023C617.742 307.023 620.174 306.774 622.019 306.276C623.894 305.749 625.359 305.134 626.414 304.431C627.469 303.698 628.274 303.01 628.831 302.365V287.951H614.065V281.14H637.312V304.606ZM673.115 313H664.59V249.016H673.115V313ZM750.315 313H741.746L709.622 263.518V313H701.096V249.016H709.622L741.878 298.63V249.016H750.315V313ZM818.594 313H777.944V249.016H818.154V255.915H786.47V276.525H814.111V283.381H786.47V306.145H818.594V313ZM882.346 313H841.697V249.016H881.907V255.915H850.222V276.525H877.864V283.381H850.222V306.145H882.346V313ZM926.631 249.016C933.838 249.016 939.375 250.656 943.242 253.938C947.138 257.219 949.087 261.979 949.087 268.22C949.087 272.175 948.003 275.646 945.835 278.635C943.696 281.623 940.708 283.85 936.87 285.314L951.899 312.473V313H942.759L928.872 287.072H913.974V313H905.449V249.016H926.631ZM926.631 255.915H913.974V280.217H926.85C931.391 280.217 934.805 279.045 937.09 276.701C939.375 274.357 940.517 271.53 940.517 268.22C940.517 264.499 939.419 261.525 937.221 259.299C935.024 257.043 931.494 255.915 926.631 255.915ZM982.649 313H974.123V249.016H982.649V313ZM1059.85 313H1051.28L1019.15 263.518V313H1010.63V249.016H1019.15L1051.41 298.63V249.016H1059.85V313ZM1134.76 304.606C1133.97 305.749 1132.71 307.053 1130.98 308.518C1129.28 309.953 1126.91 311.213 1123.86 312.297C1120.85 313.352 1116.94 313.879 1112.13 313.879C1106.95 313.879 1102.33 312.678 1098.29 310.275C1094.27 307.873 1091.12 304.401 1088.84 299.86C1086.55 295.319 1085.41 289.87 1085.41 283.513V278.459C1085.41 268.908 1087.62 261.467 1092.05 256.135C1096.5 250.803 1102.86 248.137 1111.12 248.137C1116.01 248.137 1120.11 248.986 1123.42 250.686C1126.74 252.355 1129.31 254.67 1131.16 257.629C1133.03 260.588 1134.24 263.957 1134.76 267.736H1126.24C1125.86 265.422 1125.09 263.312 1123.95 261.408C1122.84 259.475 1121.24 257.937 1119.16 256.794C1117.08 255.622 1114.42 255.036 1111.16 255.036C1105.25 255.036 1100.9 257.131 1098.11 261.32C1095.36 265.51 1093.98 271.193 1093.98 278.371V283.513C1093.98 290.896 1095.65 296.667 1098.99 300.827C1102.33 304.958 1106.73 307.023 1112.17 307.023C1115.19 307.023 1117.62 306.774 1119.47 306.276C1121.34 305.749 1122.81 305.134 1123.86 304.431C1124.92 303.698 1125.72 303.01 1126.28 302.365V287.951H1111.52V281.14H1134.76V304.606ZM1243.46 292.697C1243.02 296.711 1241.86 300.329 1239.99 303.552C1238.11 306.745 1235.46 309.265 1232.03 311.11C1228.61 312.956 1224.31 313.879 1219.16 313.879C1214.15 313.879 1209.77 312.663 1206.02 310.231C1202.27 307.771 1199.35 304.313 1197.27 299.86C1195.19 295.407 1194.15 290.207 1194.15 284.26V277.8C1194.15 271.823 1195.19 266.623 1197.27 262.199C1199.38 257.746 1202.37 254.289 1206.24 251.828C1210.1 249.367 1214.67 248.137 1219.95 248.137C1227.21 248.137 1232.78 250.129 1236.65 254.113C1240.54 258.068 1242.81 263.21 1243.46 269.538H1234.93C1234.29 265.056 1232.85 261.525 1230.63 258.947C1228.43 256.34 1224.87 255.036 1219.95 255.036C1214.29 255.036 1210 257.116 1207.07 261.276C1204.17 265.437 1202.72 270.915 1202.72 277.712V284.26C1202.72 288.449 1203.31 292.272 1204.48 295.729C1205.65 299.157 1207.44 301.896 1209.84 303.947C1212.27 305.998 1215.38 307.023 1219.16 307.023C1222.76 307.023 1225.62 306.452 1227.73 305.31C1229.87 304.167 1231.48 302.526 1232.56 300.388C1233.67 298.249 1234.46 295.686 1234.93 292.697H1243.46ZM1316.84 283.073C1316.84 289.46 1315.78 294.953 1313.67 299.553C1311.56 304.152 1308.59 307.697 1304.75 310.188C1300.91 312.648 1296.39 313.879 1291.17 313.879C1286.13 313.879 1281.66 312.648 1277.77 310.188C1273.87 307.697 1270.82 304.152 1268.63 299.553C1266.43 294.953 1265.33 289.46 1265.33 283.073V278.986C1265.33 272.6 1266.42 267.106 1268.58 262.507C1270.78 257.878 1273.81 254.333 1277.68 251.872C1281.58 249.382 1286.04 248.137 1291.08 248.137C1296.3 248.137 1300.82 249.382 1304.66 251.872C1308.53 254.333 1311.52 257.878 1313.63 262.507C1315.77 267.106 1316.84 272.6 1316.84 278.986V283.073ZM1308.4 278.898C1308.4 271.281 1306.87 265.451 1303.83 261.408C1300.78 257.336 1296.53 255.3 1291.08 255.3C1285.87 255.3 1281.68 257.336 1278.51 261.408C1275.38 265.451 1273.81 271.281 1273.81 278.898V283.073C1273.81 290.749 1275.39 296.623 1278.56 300.695C1281.75 304.738 1285.96 306.76 1291.17 306.76C1296.68 306.76 1300.93 304.738 1303.92 300.695C1306.9 296.623 1308.4 290.749 1308.4 283.073V278.898ZM1353.12 249.016L1374 301.311L1394.87 249.016H1405.86V313H1397.37V287.995L1398.17 261.32L1377.2 313H1370.74L1349.83 261.32L1350.62 287.995V313H1342.14V249.016H1353.12ZM1457.04 287.907H1441.92V313H1433.4V249.016H1457.04C1461.87 249.016 1465.96 249.851 1469.3 251.521C1472.64 253.19 1475.17 255.49 1476.9 258.42C1478.63 261.35 1479.5 264.719 1479.5 268.527C1479.5 274.709 1477.56 279.484 1473.7 282.854C1469.86 286.223 1464.31 287.907 1457.04 287.907ZM1457.04 255.915H1441.92V281.052H1457.04C1461.99 281.052 1465.55 279.895 1467.72 277.58C1469.89 275.236 1470.97 272.248 1470.97 268.615C1470.97 266.418 1470.49 264.353 1469.52 262.419C1468.58 260.485 1467.09 258.918 1465.04 257.717C1463.02 256.516 1460.35 255.915 1457.04 255.915ZM1497.81 313H1489.02L1513.45 249.016H1520.92L1545.4 313H1536.66L1530.55 296.257H1503.87L1497.81 313ZM1506.38 289.357H1528.04L1517.19 259.475L1506.38 289.357ZM1615.83 313H1607.26L1575.14 263.518V313H1566.61V249.016H1575.14L1607.4 298.63V249.016H1615.83V313ZM1663.02 281.184L1679.63 249.016H1689.3L1667.28 289.094V313H1658.71V289.094L1636.7 249.016H1646.45L1663.02 281.184Z" fill="white" fill-opacity="0.42"/>
<path d="M302.47 302.154H313.213V312.897H302.47V302.154Z" fill="#FFA800"/>
<path d="M356.184 302.154V194.727H318.584V124.899C318.584 116.014 311.356 108.785 302.47 108.785H264.871V44.1747L289.271 37.9432V0L27.5859 66.8296V104.773L51.9855 98.5414V173.241H10.9849V302.154H0.242188V312.896H291.728V302.154H221.9V226.955H318.584V205.469H345.441V302.154H323.956V312.896H366.926V302.154H356.184V302.154ZM151.895 61.9396L38.3287 90.9427V75.1731L278.528 13.8302V29.5997L162.303 59.2818L164.961 69.6901L254.128 46.9184V108.785H200.415V194.727H125.216V173.241H62.7289V95.7991L154.554 72.3485L151.895 61.9396ZM221.9 216.213H103.73V205.47H221.9V216.213ZM21.7276 183.985H114.473V194.727H92.9875V226.955H103.73V302.154H92.9875V237.698H32.4696V302.154H21.7276V183.985ZM82.2448 269.926V280.669H43.2123V269.926H82.2448ZM43.2123 259.183V248.441H82.2448V259.183H43.2123ZM82.2448 291.412V302.154H43.2123V291.412H82.2448ZM184.3 302.154H141.329V253.812H184.3V302.154ZM211.157 302.154H195.042V243.069H130.586V302.154H114.472V226.955H211.157V302.154H211.157ZM307.842 216.213H232.643V194.727H211.157V119.528H302.47C305.432 119.528 307.842 121.938 307.842 124.9V216.213Z" fill="#FFA800"/>
<path d="M227.271 178.613H291.728V135.642H227.271V178.613ZM238.014 146.385H280.985V167.871H238.014V146.385Z" fill="#FFA800"/>
<path d="M184.302 108.786H78.8428V157.128H184.303V108.786H184.302ZM89.5855 119.529H126.202V146.386H89.5855V119.529ZM173.56 146.385H136.944V119.528H173.56V146.385Z" fill="#FFA800"/>
<path d="M329.327 243.069H238.014V286.04H329.327V243.069ZM248.757 253.812H278.299V275.298H248.757V253.812ZM318.584 275.298H289.042V253.812H318.584V275.298Z" fill="#FFA800"/>
<path d="M232.644 63.6669H243.386V74.4096H232.644V63.6669Z" fill="#FFA800"/>
<path d="M232.644 85.1523H243.386V95.895H232.644V85.1523Z" fill="#FFA800"/>
</svg>
