<svg width="432" height="352" viewBox="0 0 432 352" fill="none" xmlns="http://www.w3.org/2000/svg">
<path d="M424.067 335.341V8C424.067 3.582 420.485 0 416.067 0H15.85C11.432 0 7.85 3.582 7.85 8V245.355C7.718 245.932 7.642 246.529 7.642 247.146C7.642 247.763 7.718 248.36 7.85 248.937V335.341C3.502 335.421 0 338.965 0 343.333C0 347.751 3.582 351.333 8 351.333H15.85H95.9C100.318 351.333 103.9 347.751 103.9 343.333C103.9 343.252 103.89 343.174 103.888 343.093C103.89 343.013 103.9 342.934 103.9 342.853V327.582H327.942V342.853C327.942 342.934 327.952 343.012 327.954 343.093C327.952 343.173 327.942 343.252 327.942 343.333C327.942 347.751 331.524 351.333 335.942 351.333H415.992C416.005 351.333 416.017 351.331 416.03 351.331C416.043 351.331 416.055 351.333 416.068 351.333H423.918C428.336 351.333 431.918 347.751 431.918 343.333C431.917 338.965 428.415 335.422 424.067 335.341ZM87.9 335.333H23.85V255.145H87.9V335.333ZM263.733 199.666V159.999H327.942V199.666H263.733ZM184.109 199.666V159.999H247.733V199.666H184.109ZM103.9 199.666V159.999H168.109V199.666H103.9ZM23.85 199.666V159.999H87.9V199.666H23.85ZM327.942 144H263.733V103.333H327.942V144ZM343.942 103.333H408.067V144H343.942V103.333ZM247.733 144H184.109V103.333H247.733V144ZM168.109 144H103.9V103.333H168.109V144ZM87.9 144H23.85V103.333H87.9V144ZM343.942 160H408.067V199.667H343.942V160ZM408.067 87.333H343.942V47.833H408.067V87.333ZM327.942 87.333H263.733V47.833H327.942V87.333ZM247.733 87.333H184.109V47.833H247.733V87.333ZM168.109 87.333H103.9V47.833H168.109V87.333ZM87.9 87.333H23.85V47.833H87.9V87.333ZM23.85 239.146V215.667H408.067V239.146H23.85ZM343.942 255.146H408.067V335.334H343.942V255.146ZM408.067 16V31.833H23.85V16H408.067ZM103.9 311.583V255.145H327.942V311.583H103.9Z" fill="#FFA800"/>
</svg>
